<?xml version="1.0" standalone="no"?>
<!DOCTYPE svg PUBLIC "-//W3C//DTD SVG 20010904//EN"
 "http://www.w3.org/TR/2001/REC-SVG-20010904/DTD/svg10.dtd">
<svg version="1.0" xmlns="http://www.w3.org/2000/svg"
 width="576.000000pt" height="576.000000pt" viewBox="0 0 576.000000 576.000000"
 preserveAspectRatio="xMidYMid meet">
<metadata>
Created by potrace 1.14, written by Peter Selinger 2001-2017
</metadata>
<g transform="translate(0.000000,576.000000) scale(0.100000,-0.100000)"
fill="#000000" stroke="none">
<path d="M2620 5023 c0 -5 -14 -24 -30 -43 -16 -19 -33 -39 -38 -45 -23 -30
-88 -112 -97 -121 -201 -225 -459 -483 -615 -614 -14 -12 -52 -45 -84 -73 -33
-29 -71 -61 -85 -72 -14 -10 -28 -22 -31 -25 -3 -3 -23 -19 -45 -36 -43 -32
-80 -62 -101 -82 -8 -7 -14 -10 -14 -5 0 4 -4 3 -8 -3 -8 -13 -79 -68 -159
-124 -51 -36 -51 -37 -48 -86 1 -27 6 -71 10 -99 4 -27 9 -61 10 -75 2 -14 3
-29 4 -33 1 -5 7 -5 14 0 6 4 23 9 37 11 13 2 27 6 30 10 3 4 10 8 17 9 7 2
65 28 130 59 65 30 129 61 143 67 14 6 32 17 40 23 8 7 24 14 35 16 11 1 22 5
25 8 12 12 120 68 140 72 8 2 23 11 33 20 11 9 34 24 52 32 18 9 55 31 82 50
28 19 54 32 57 29 3 -4 6 -2 6 4 0 6 20 23 44 37 40 24 246 163 271 183 6 4
33 26 60 48 28 22 52 43 53 47 2 5 9 8 15 8 7 1 23 10 36 21 l24 20 1 384 c1
212 -2 385 -6 385 -5 0 -8 -3 -8 -7z"/>
<path d="M2818 4979 c-1 -28 0 -57 5 -64 4 -8 4 -16 0 -18 -12 -7 -4 -647 7
-647 9 0 27 -15 75 -60 12 -11 25 -20 30 -20 6 0 26 -14 45 -30 19 -16 40 -34
47 -40 7 -5 17 -10 23 -10 5 0 10 -3 10 -7 0 -5 28 -26 63 -48 34 -22 64 -42
67 -45 11 -13 264 -175 268 -172 3 2 8 -1 11 -6 7 -11 184 -108 190 -103 2 1
7 -1 10 -6 9 -13 387 -196 411 -199 3 0 23 -8 44 -17 22 -10 40 -16 41 -15 2
2 6 30 9 63 4 33 9 78 12 100 13 105 13 104 -16 125 -16 11 -33 20 -39 20 -5
0 -14 6 -18 13 -10 16 -69 57 -82 57 -5 0 -11 4 -13 9 -1 5 -43 39 -93 77 -49
37 -92 70 -95 74 -3 3 -43 37 -90 75 -47 39 -95 79 -107 90 -11 11 -54 49 -93
85 -101 91 -300 290 -397 395 -94 104 -200 224 -221 250 -4 6 -28 36 -54 67
l-46 58 -4 -51z"/>
<path d="M2598 4092 c-18 -18 -21 -21 -83 -66 -22 -17 -43 -35 -47 -40 -4 -6
-8 -7 -8 -2 0 5 -10 0 -22 -11 -13 -11 -38 -28 -55 -39 -18 -10 -33 -22 -33
-26 0 -4 -7 -8 -15 -8 -8 0 -15 -4 -15 -8 0 -4 -12 -13 -27 -20 -32 -14 -86
-44 -93 -52 -12 -14 -70 -51 -70 -45 0 4 -7 -1 -16 -9 -8 -9 -21 -16 -29 -16
-7 0 -15 -4 -17 -9 -3 -8 -240 -132 -260 -137 -5 -1 -10 -3 -13 -4 -3 -1 -8
-3 -12 -4 -5 -1 -33 -14 -63 -28 -47 -22 -144 -61 -160 -64 -3 0 -12 -3 -20
-6 -40 -15 -112 -38 -177 -57 l-71 -21 13 -50 c14 -54 16 -60 21 -75 2 -5 10
-36 19 -67 9 -32 22 -59 28 -59 37 -4 63 -4 72 0 5 3 16 6 25 7 12 1 72 10
115 18 6 1 15 4 20 8 6 3 27 9 48 12 56 9 211 48 217 55 3 3 10 6 15 7 18 1
70 16 100 29 17 7 44 17 60 21 17 4 35 9 40 13 6 3 12 6 15 7 7 1 41 14 65 24
93 40 165 68 165 65 0 -3 59 25 131 62 73 36 137 66 145 66 7 0 15 11 19 24 4
19 8 281 5 481 0 45 -6 50 -32 24z"/>
<path d="M2823 4078 c-1 -13 -2 -63 -2 -113 1 -49 1 -151 1 -225 -1 -74 1
-142 4 -151 3 -9 19 -23 37 -30 18 -7 34 -16 37 -19 7 -9 239 -120 263 -126 4
-1 10 -3 15 -4 4 -1 10 -2 15 -1 4 0 7 -3 7 -9 0 -5 7 -10 15 -10 8 0 38 -11
67 -24 88 -40 368 -127 493 -153 11 -3 25 -6 30 -7 57 -15 161 -34 227 -41 59
-6 62 -4 74 48 1 4 3 8 4 10 1 1 4 11 6 22 2 11 11 49 21 85 10 36 18 71 18
79 0 8 -31 22 -80 36 -98 29 -215 70 -272 96 -24 10 -45 19 -49 19 -18 0 -408
194 -424 210 -3 3 -38 25 -78 49 -97 56 -296 191 -300 202 -2 5 -8 9 -14 9 -6
0 -30 16 -54 35 -50 41 -59 43 -61 13z"/>
<path d="M2605 3443 c-16 -8 -38 -22 -47 -31 -10 -8 -18 -11 -18 -7 0 4 -8 1
-17 -7 -29 -24 -113 -70 -113 -61 0 4 -4 3 -8 -3 -9 -14 -141 -75 -222 -103
-36 -12 -74 -27 -85 -32 -12 -6 -27 -11 -35 -13 -8 -2 -27 -8 -42 -14 -15 -6
-43 -13 -61 -15 -18 -2 -37 -6 -42 -9 -11 -6 -59 -19 -90 -24 -11 -1 -31 -6
-45 -9 -32 -8 -54 -12 -110 -20 -25 -3 -52 -8 -60 -11 -8 -3 -49 -8 -90 -11
-41 -3 -79 -9 -84 -13 -11 -11 0 -54 19 -74 8 -8 15 -19 15 -25 0 -12 41 -42
50 -36 4 2 51 7 106 11 187 14 464 5 503 -15 10 -6 20 -8 23 -6 6 6 135 -29
197 -54 67 -27 213 -101 226 -116 6 -5 22 -20 36 -33 l26 -22 -1 46 c-1 25 2
48 6 50 3 2 3 17 -1 32 -3 15 -5 61 -4 102 2 41 2 93 2 115 -1 22 -1 127 -2
233 0 105 -1 192 -1 192 -1 -1 -14 -8 -31 -17z"/>
<path d="M2819 3438 c0 -7 -2 -178 -4 -380 l-3 -367 26 17 c15 9 29 19 32 23
8 9 152 94 161 94 4 0 11 3 15 8 4 4 16 7 26 7 10 0 18 5 18 10 0 6 3 9 8 9 4
-1 9 -1 12 1 3 1 16 4 30 6 14 3 26 9 28 14 2 5 9 7 17 4 7 -3 23 0 35 6 13 7
32 13 44 15 19 2 87 13 128 20 76 15 285 20 386 11 148 -14 182 -15 182 -5 0
6 5 7 10 4 6 -3 10 3 10 14 0 12 3 21 8 21 4 0 15 19 25 42 21 48 14 57 -43
59 -40 1 -68 4 -125 12 -22 4 -58 9 -81 12 -22 3 -56 10 -74 15 -18 5 -35 9
-39 8 -3 -1 -13 1 -21 5 -12 4 -63 17 -130 32 -3 1 -25 7 -50 14 -25 7 -45 12
-46 10 0 -2 -8 2 -17 10 -10 7 -17 10 -17 6 0 -4 -7 -2 -15 5 -8 7 -15 10 -15
7 0 -3 -37 10 -82 29 -45 19 -87 34 -94 34 -6 0 -17 7 -24 15 -7 9 -15 13 -17
11 -6 -5 -167 77 -239 122 -57 36 -64 38 -65 20z"/>
<path d="M1019 2902 c-75 -21 -146 -85 -204 -183 -19 -33 -35 -62 -35 -64 0
-2 -25 -45 -55 -95 -30 -50 -55 -93 -55 -95 0 -2 -18 -33 -40 -67 -22 -35 -40
-68 -40 -75 0 -6 -4 -13 -8 -15 -8 -3 -36 -48 -85 -138 -17 -30 -38 -67 -49
-82 -10 -14 -18 -29 -18 -33 0 -3 -16 -31 -35 -61 -19 -30 -35 -59 -35 -64 0
-6 -4 -10 -10 -10 -5 0 -10 -4 -10 -9 0 -13 -73 -135 -82 -139 -5 -2 -8 -8 -8
-12 0 -5 -26 -53 -59 -107 -106 -178 -179 -311 -173 -317 3 -3 0 -6 -7 -6 -19
0 -6 -75 19 -110 23 -32 100 -73 144 -77 36 -4 86 17 86 34 0 7 4 13 9 13 8 0
52 63 127 180 13 19 24 42 26 50 2 8 10 22 18 31 8 10 26 39 40 66 14 26 31
54 38 62 8 8 18 24 23 35 16 34 97 166 109 176 12 11 110 171 110 180 0 6 4
10 8 10 5 0 16 16 25 35 9 19 29 54 43 77 15 24 26 45 25 47 -2 2 1 7 7 10 5
3 30 42 56 86 112 190 137 226 151 215 7 -6 33 -41 57 -78 23 -37 46 -68 50
-70 5 -2 8 -8 8 -13 0 -10 62 -103 73 -107 4 -2 7 -7 7 -12 0 -14 83 -130 92
-130 5 0 6 -4 3 -10 -4 -6 7 -10 25 -10 37 0 139 -25 190 -46 66 -28 145 -68
151 -77 3 -5 9 -8 13 -8 9 2 58 -31 84 -56 34 -34 47 -28 21 10 -13 17 -27 34
-31 35 -4 2 -8 8 -8 12 0 5 -29 53 -64 107 -76 118 -163 259 -304 493 -58 96
-110 178 -116 182 -6 4 -7 8 -2 8 5 0 4 6 -2 13 -5 6 -20 30 -32 52 -40 72
-84 123 -122 140 -34 16 -118 26 -149 17z"/>
<path d="M4061 2618 c-39 -14 -69 -54 -75 -100 -3 -24 -5 -328 -4 -675 l3
-633 31 -31 c28 -28 38 -31 105 -34 92 -5 117 6 147 65 20 41 22 57 22 227 0
101 2 183 4 183 3 0 49 -23 103 -51 155 -81 628 -327 698 -362 86 -44 122 -57
169 -61 25 -3 48 0 52 5 3 5 10 7 15 3 6 -3 28 12 49 35 37 39 39 43 37 105
-3 94 -8 99 -337 254 -52 24 -142 67 -200 94 -58 28 -125 59 -150 70 -91 41
-232 113 -236 120 -3 4 30 29 71 55 42 26 106 67 142 91 35 23 72 42 81 42 8
0 12 3 9 6 -4 4 9 15 29 26 19 10 105 62 190 116 84 53 181 112 214 131 34 19
74 46 91 60 51 42 81 119 58 147 -6 8 -8 14 -5 14 21 0 -35 63 -70 81 -46 22
-132 21 -176 -2 -39 -20 -133 -83 -136 -91 -2 -5 -8 -8 -14 -8 -5 0 -20 -8
-33 -17 -12 -10 -31 -24 -41 -30 -11 -7 -79 -53 -152 -103 -73 -49 -135 -90
-138 -90 -3 0 -15 -9 -27 -21 -12 -12 -29 -24 -37 -27 -8 -4 -68 -43 -133 -86
-64 -44 -119 -77 -122 -74 -3 2 -5 109 -6 238 -1 258 -6 282 -63 316 -34 20
-125 27 -165 12z"/>
<path d="M2338 2609 c-35 -9 -53 -27 -71 -71 -13 -30 -15 -131 -13 -669 2
-608 2 -635 21 -666 11 -17 31 -38 46 -47 38 -22 152 -22 190 1 52 31 57 57
59 292 0 118 2 216 4 218 4 4 260 -125 531 -267 254 -134 443 -226 496 -244
49 -16 99 -18 99 -4 0 5 4 7 9 4 8 -5 47 20 80 52 9 8 15 38 16 73 3 55 0 62
-28 90 -17 17 -100 64 -186 106 -86 40 -168 81 -183 89 -15 8 -31 15 -35 16
-16 1 -296 138 -292 142 2 3 72 6 155 7 217 3 302 33 398 139 75 83 106 182
103 330 -3 95 -6 111 -34 170 -32 66 -133 186 -146 173 -4 -3 -7 -1 -7 4 0 6
-24 24 -52 39 l-53 28 -540 1 c-297 1 -552 -2 -567 -6z m1006 -243 c13 -3 37
-18 53 -33 97 -93 84 -259 -25 -315 -45 -23 -47 -23 -421 -23 l-376 0 -2 187
c-2 186 -2 187 20 190 40 6 726 0 751 -6z"/>
<path d="M1127 1973 c-1 0 -20 -2 -42 -4 -22 -1 -46 -7 -52 -12 -7 -5 -13 -7
-13 -4 0 3 -15 1 -32 -4 -18 -6 -37 -12 -43 -13 -58 -17 -153 -67 -181 -98
-39 -40 -41 -119 -5 -170 35 -49 100 -66 156 -40 76 36 118 51 175 61 80 14
200 20 200 9 0 -4 7 -5 14 -2 32 12 205 -54 268 -103 49 -38 135 -130 165
-178 18 -27 36 -55 40 -60 5 -6 16 -28 27 -50 10 -22 22 -47 27 -55 5 -8 13
-24 18 -35 28 -63 118 -94 214 -73 45 9 77 48 77 92 0 46 -84 252 -116 284 -8
7 -14 19 -14 27 0 7 -4 15 -8 17 -5 2 -27 28 -50 59 -72 96 -167 168 -327 248
-149 73 -260 101 -428 104 -38 1 -69 1 -70 0z"/>
</g>
</svg>
